<?xml version="1.0" standalone="no"?>
<!DOCTYPE svg PUBLIC "-//W3C//DTD SVG 20010904//EN"
 "http://www.w3.org/TR/2001/REC-SVG-20010904/DTD/svg10.dtd">
<svg version="1.0" xmlns="http://www.w3.org/2000/svg"
 width="500.000000pt" height="500.000000pt" viewBox="0 0 500.000000 500.000000"
 preserveAspectRatio="xMidYMid meet">
<metadata>
Created by potrace 1.11, written by Peter Selinger 2001-2013
</metadata>
<g transform="translate(0.000000,500.000000) scale(0.100000,-0.100000)"
fill="#000000" stroke="none">
<path d="M1050 4989 c0 -6 52 -204 115 -441 63 -236 115 -431 115 -434 0 -3
52 -3 117 -2 l116 3 73 314 c40 172 74 315 76 316 2 2 37 -139 79 -313 l75
-317 114 0 115 0 117 425 c64 234 117 433 117 443 1 15 -11 17 -108 17 -96 0
-110 -2 -115 -17 -3 -10 -35 -151 -71 -313 -37 -162 -67 -296 -69 -297 -1 -2
-36 138 -77 310 l-75 312 -99 0 -100 0 -74 -312 c-41 -172 -76 -312 -77 -310
-2 2 -144 616 -144 623 0 2 -49 4 -110 4 -74 0 -110 -4 -110 -11z"/>
<path d="M2360 4555 l0 -445 360 0 361 0 -3 88 -3 87 -252 3 -253 2 0 100 0
100 220 0 220 0 0 80 0 80 -220 0 -220 0 0 85 0 85 250 0 250 0 0 90 0 90
-355 0 -355 0 0 -445z"/>
<path d="M3200 4554 l0 -446 283 5 c178 2 296 8 319 16 54 17 118 70 142 116
28 54 29 173 2 229 -21 42 -86 94 -128 103 -30 6 -39 23 -13 23 9 0 35 18 59
40 86 79 88 195 4 286 -63 68 -94 74 -405 74 l-263 0 0 -446z m481 247 c32
-33 36 -58 15 -100 -22 -41 -55 -51 -176 -51 l-110 0 0 90 0 90 121 0 c120 0
121 0 150 -29z m-16 -321 c51 -12 75 -41 75 -92 0 -89 -35 -108 -205 -108
l-125 0 0 105 0 105 108 0 c59 0 125 -5 147 -10z"/>
<path d="M2333 3780 c-613 -70 -1121 -466 -1332 -1036 -16 -44 -42 -134 -57
-200 -26 -110 -28 -135 -29 -329 0 -185 3 -223 23 -315 79 -351 252 -649 502
-867 616 -533 1504 -533 2120 0 250 218 423 516 502 867 20 92 23 130 23 315
-1 194 -3 219 -29 329 -147 627 -617 1085 -1243 1212 -137 27 -356 39 -480 24z
m393 -295 c404 -71 761 -337 946 -706 241 -482 151 -1065 -226 -1457 -195
-203 -447 -338 -722 -386 -115 -21 -333 -21 -448 0 -275 48 -527 183 -722 386
-378 394 -467 974 -225 1458 120 239 325 449 559 573 103 54 266 111 378 131
108 20 349 20 460 1z"/>
<path d="M1561 2803 c-22 -11 -40 -31 -52 -57 -17 -38 -19 -77 -19 -551 0
-562 -1 -552 63 -599 28 -20 41 -21 478 -24 l449 -3 0 -104 0 -105 -150 0
-150 0 0 -25 0 -25 320 0 320 0 0 25 0 25 -150 0 -150 0 0 105 0 104 449 3
c437 3 450 4 478 24 64 47 63 37 63 599 0 475 -2 513 -19 551 -36 79 26 74
-993 74 -822 0 -906 -2 -937 -17z"/>
<path d="M910 145 l0 -145 150 0 150 0 0 145 0 145 -150 0 -150 0 0 -145z"/>
<path d="M1497 283 c-4 -3 -7 -69 -7 -145 l0 -138 1300 0 1300 0 0 145 0 145
-1293 0 c-712 0 -1297 -3 -1300 -7z"/>
</g>
</svg>
